<?xml version="1.0"?>
<svg xmlns="http://www.w3.org/2000/svg" xmlns:xlink="http://www.w3.org/1999/xlink" xmlns:svgjs="http://svgjs.com/svgjs" version="1.1" width="512" height="512" x="0" y="0" viewBox="0 0 64 64" style="enable-background:new 0 0 512 512" xml:space="preserve" class=""><g><g xmlns="http://www.w3.org/2000/svg" id="Filled_outline" data-name="Filled outline"><rect x="39" y="32" width="4" height="10" transform="translate(78 -4) rotate(90)" style="" fill="#ffffff" data-original="#ffd782" class=""/><path d="M46.371,42.071,37,38.323v-3.24l2.986-17.919L39.938,15l-1.563.375-.361,1.461-3,18A1,1,0,0,0,35,35v4a1,1,0,0,0,.629.929l10,4,2,1.071L48,43.25Z" style="" fill="#ffffff" data-original="#38495c" class=""/><polygon points="46 9 39 17 30 13 18 15 19 26 14 61 6 61 6 3 46 3 46 9" style="" fill="#ffffff" data-original="#d3843d" class=""/><rect x="46" y="23" width="8" height="8" style="" fill="#ffffff" data-original="#ffd782" class=""/><polygon points="46 51 39 51 36 57 32 57 37 47 46 47 46 51" style="" fill="#ffffff" data-original="#ba651e" class=""/><rect x="27" y="9" width="1.999" height="5" transform="translate(2 27) rotate(-53.13)" style="" fill="#ffffff" data-original="#f1c056" class=""/><rect x="13.764" y="15" width="4.472" height="2" transform="translate(-5.466 8.845) rotate(-26.565)" style="" fill="#ffffff" data-original="#f1c056" class=""/><rect x="15.5" y="22.95" width="2" height="5.099" transform="translate(-11.741 36.679) rotate(-78.69)" style="" fill="#ffffff" data-original="#f1c056" class=""/><polygon points="11 12 9 12 9 6 15 6 15 8 11 8 11 12" style="" fill="#ffffff" data-original="#f1c056" class=""/><rect x="9" y="14" width="2" height="2" style="" fill="#ffffff" data-original="#f1c056" class=""/><rect x="6" y="50" width="5" height="2" style="" fill="#ffffff" data-original="#f1c056" class=""/><rect x="6" y="46" width="3" height="2" style="" fill="#ffffff" data-original="#f1c056" class=""/><rect x="6" y="35" width="6" height="2" style="" fill="#ffffff" data-original="#f1c056" class=""/><rect x="11" y="41" width="2" height="2" style="" fill="#ffffff" data-original="#f1c056" class=""/><rect x="9" y="29" width="4" height="2" style="" fill="#ffffff" data-original="#f1c056" class=""/><rect x="46" y="35" width="8" height="16" style="" fill="#ffffff" data-original="#5ac6aa" class=""/><rect x="30" y="55" width="4" height="8" transform="translate(-27 91) rotate(-90)" style="" fill="#ffffff" data-original="#38495c" class=""/><path d="M54,35h2a2,2,0,0,1,2,2V51a0,0,0,0,1,0,0H54a0,0,0,0,1,0,0V35A0,0,0,0,1,54,35Z" style="" fill="#ffffff" data-original="#4f97d5" class=""/><rect x="46" y="43" width="8" height="4" style="" fill="#ffffff" data-original="#38495c" class=""/><rect x="46" y="23" width="8" height="4" style="" fill="#ffffff" data-original="#38495c" class=""/><polygon points="9 12 11 12 11 8 15 8 15 6 9 6 9 12" fill="#000000" data-original="#000000" style="" class=""/><rect x="9" y="14" width="2" height="2" fill="#000000" data-original="#000000" style="" class=""/><rect x="11" y="41" width="2" height="2" fill="#000000" data-original="#000000" style="" class=""/><rect x="9" y="29" width="4" height="2" fill="#000000" data-original="#000000" style="" class=""/><path d="M45,23v8a1,1,0,0,0,1,1h8a1,1,0,0,0,1-1V23a1,1,0,0,0-1-1H46A1,1,0,0,0,45,23Zm2,7V28h6v2Zm0-6h6v2H47Z" fill="#000000" data-original="#000000" style="" class=""/><path d="M56,34H37.18l2.76-16.555,6.813-7.787A1,1,0,0,0,47,9V3a1,1,0,0,0-1-1H6A1,1,0,0,0,5,3V61a1,1,0,0,0,1,1h8a1,1,0,0,0,.99-.858l5-35A1.011,1.011,0,0,0,20,25.909L19.08,15.834l10.788-1.8L37.886,17.6,35.014,34.836A1,1,0,0,0,35,35v4a1,1,0,0,0,.629.929L45,43.677V46H37a1,1,0,0,0-.9.553L31.382,56H28a1,1,0,0,0-1,1v4a1,1,0,0,0,1,1h8a1,1,0,0,0,1-1V57.236L39.618,52H58a1,1,0,0,0,1-1V37A3,3,0,0,0,56,34ZM45,41.523,41.192,40H45ZM47,44h6v2H47Zm6-2H47V36h6Zm-8-4H37V36h8ZM17.836,14.014a1.872,1.872,0,0,0-.283.091l-4,2,.894,1.79,2.69-1.345.745,8.207L14.2,24.02,13.8,25.98l4.072.815L13.133,60H7V52h4V50H7V48H9V46H7V37h5V35H7V4H45V8.624l-6.268,7.163-8.225-3.656L26.6,9.2l-1.2,1.6,2.131,1.6ZM35,60H29V58h6Zm4-10a1,1,0,0,0-.9.553L35.382,56H33.618l4-8H45v2Zm8-2h6v2H47Zm10,2H55V36h1a1,1,0,0,1,1,1Z" fill="#000000" data-original="#000000" style="" class=""/></g></g></svg>
